<?xml version="1.0" encoding="UTF-8"?>
<!DOCTYPE svg PUBLIC "-//W3C//DTD SVG 1.1//EN" "http://www.w3.org/Graphics/SVG/1.1/DTD/svg11.dtd">
<svg 
    xmlns="http://www.w3.org/2000/svg" 
    version="1.1" 
    width="180px" 
    height="180px" 
    style=" shape-rendering: geometricPrecision; 
            text-rendering: geometricPrecision; 
            image-rendering: optimizeQuality; 
            fill-rule: evenodd; 
            clip-rule: evenodd" 
    xmlns:xlink="http://www.w3.org/1999/xlink">
    <g>
        <path 
            style="opacity:0.897" 
            fill="#f0134f"
            d="M 160.5,24.5 C 164.78,27.2525 167.614,30.9192 169,35.5C 151.039,51.5574 133.206,67.7241 115.5,84C 132.654,101.154 149.821,118.321 167,135.5C 167.953,137.455 169.287,139.122 171,140.5C 171.667,141.5 171.667,142.5 171,143.5C 167.353,146.313 163.853,149.313 160.5,152.5C 143.882,133.048 126.049,114.715 107,97.5C 106.667,115.167 106.333,132.833 106,150.5C 101.934,151.464 97.7675,151.797 93.5,151.5C 93.5,147.833 93.5,144.167 93.5,140.5C 71.1667,140.5 48.8333,140.5 26.5,140.5C 26.5,144.167 26.5,147.833 26.5,151.5C 22.5,151.5 18.5,151.5 14.5,151.5C 14.5,111.167 14.5,70.8333 14.5,30.5C 45.1667,30.5 75.8333,30.5 106.5,30.5C 106.333,44.8372 106.5,59.1705 107,73.5C 124.729,56.9321 142.563,40.5988 160.5,24.5 Z M 26.5,41.5 C 48.8333,41.5 71.1667,41.5 93.5,41.5C 93.5,53.8333 93.5,66.1667 93.5,78.5C 71.1667,78.5 48.8333,78.5 26.5,78.5C 26.5,66.1667 26.5,53.8333 26.5,41.5 Z M 26.5,90.5 C 48.8333,90.5 71.1667,90.5 93.5,90.5C 93.5,103.5 93.5,116.5 93.5,129.5C 71.1667,129.5 48.8333,129.5 26.5,129.5C 26.5,116.5 26.5,103.5 26.5,90.5 Z"
        />
    </g>
</svg>
