<?xml version="1.0" encoding="UTF-8"?>
<!DOCTYPE svg PUBLIC "-//W3C//DTD SVG 1.1//EN" "http://www.w3.org/Graphics/SVG/1.1/DTD/svg11.dtd">
<svg xmlns="http://www.w3.org/2000/svg" version="1.1" width="512px" height="512px" style="shape-rendering:geometricPrecision; text-rendering:geometricPrecision; image-rendering:optimizeQuality; fill-rule:evenodd; clip-rule:evenodd" xmlns:xlink="http://www.w3.org/1999/xlink">
<g><path style="opacity:0.979" fill="#f0124e" d="M 454.5,82.5 C 458.067,84.5566 461.234,87.2232 464,90.5C 468,95.1667 472,99.8333 476,104.5C 476.667,105.167 476.667,105.833 476,106.5C 431.833,145.333 387.667,184.167 343.5,223C 341.126,225.039 339.126,227.372 337.5,230C 376.941,266.773 415.774,304.273 454,342.5C 463.5,353.333 473,364.167 482.5,375C 474.204,381.627 466.204,388.627 458.5,396C 456.945,397.289 455.279,397.956 453.5,398C 441.124,381.285 427.624,365.451 413,350.5C 380.971,318.803 348.637,287.47 316,256.5C 315.5,303.165 315.333,349.832 315.5,396.5C 306.167,396.5 296.833,396.5 287.5,396.5C 287.5,387.833 287.5,379.167 287.5,370.5C 229.833,370.5 172.167,370.5 114.5,370.5C 114.5,379.167 114.5,387.833 114.5,396.5C 105.167,396.5 95.8333,396.5 86.5,396.5C 86.5,296.5 86.5,196.5 86.5,96.5C 162.833,96.5 239.167,96.5 315.5,96.5C 315.333,133.168 315.5,169.835 316,206.5C 362.063,164.931 408.23,123.597 454.5,82.5 Z M 114.5,122.5 C 172.167,122.5 229.833,122.5 287.5,122.5C 287.5,154.167 287.5,185.833 287.5,217.5C 229.833,217.5 172.167,217.5 114.5,217.5C 114.5,185.833 114.5,154.167 114.5,122.5 Z M 114.5,244.5 C 172.167,244.5 229.833,244.5 287.5,244.5C 287.5,277.5 287.5,310.5 287.5,343.5C 229.833,343.5 172.167,343.5 114.5,343.5C 114.5,310.5 114.5,277.5 114.5,244.5 Z"/></g>
</svg>
